<svg version="1.1" xmlns="http://www.w3.org/2000/svg" viewBox="0 0 325.5 339" width="325.5" height="339">
  <!-- svg-source:excalidraw -->
  
  <defs>
    <style class="style-fonts">
      
    </style>
    
  </defs>
  <rect x="0" y="0" width="325.5" height="339" fill="#ffffff"></rect><g stroke-linecap="round" transform="translate(10 125) rotate(0 34.5 33)"><path d="M8.71 13.48 C12.46 8.62, 21.1 5.12, 27.14 3 C33.17 0.88, 39.14 -1.34, 44.93 0.77 C50.72 2.88, 58.07 9.98, 61.89 15.66 C65.71 21.33, 67.72 28.6, 67.83 34.83 C67.93 41.05, 66.48 48.01, 62.53 53 C58.58 58, 50.96 63.14, 44.13 64.8 C37.31 66.45, 27.67 65.51, 21.58 62.93 C15.49 60.34, 11.01 54.74, 7.59 49.28 C4.18 43.83, -3.16 38.44, 1.08 30.2 C5.33 21.96, 23.87 3.13, 33.07 -0.18 C42.26 -3.49, 56.38 9.88, 56.25 10.35 M56.3 8.72 C61.28 12.11, 63.64 19.13, 65.28 25.59 C66.91 32.04, 67.91 41.37, 66.11 47.45 C64.3 53.52, 60.13 58.74, 54.45 62.05 C48.77 65.36, 38.46 67.49, 32 67.32 C25.55 67.16, 20.9 64.94, 15.72 61.03 C10.55 57.13, 3.63 50.09, 0.95 43.89 C-1.72 37.69, -2.99 30.5, -0.3 23.84 C2.38 17.19, 10.58 7.47, 17.05 3.94 C23.52 0.41, 31.68 2.33, 38.54 2.68 C45.39 3.04, 55.18 4.92, 58.2 6.07 C61.22 7.21, 57.39 9, 56.68 9.57" stroke="#1e1e1e" stroke-width="4" fill="none"></path></g><g stroke-linecap="round" transform="translate(125.5 263) rotate(0 34.5 33)"><path d="M58.44 10.29 C62.83 14.38, 67.23 23.64, 67.96 30.2 C68.7 36.76, 66.08 44.35, 62.85 49.65 C59.62 54.96, 54.21 59.48, 48.59 62.03 C42.97 64.59, 35.86 66.01, 29.12 64.99 C22.37 63.97, 13.06 60.78, 8.12 55.91 C3.18 51.04, 0.14 42.23, -0.52 35.75 C-1.18 29.26, 1.01 22.21, 4.16 17.02 C7.3 11.84, 12.09 7.08, 18.35 4.61 C24.61 2.14, 33.29 -0.72, 41.69 2.21 C50.09 5.13, 64.31 16.41, 68.76 22.17 C73.21 27.93, 69.21 36.36, 68.39 36.78 M45.03 1.94 C51.27 3.28, 57.24 6.41, 60.76 11.05 C64.27 15.68, 65.76 23.55, 66.11 29.75 C66.47 35.95, 66.23 42.45, 62.87 48.26 C59.51 54.07, 51.62 61.67, 45.93 64.6 C40.25 67.54, 34.72 67.72, 28.76 65.86 C22.8 63.99, 15.4 58.8, 10.16 53.42 C4.93 48.05, -1.37 39.94, -2.66 33.59 C-3.96 27.23, -1.27 20.27, 2.39 15.3 C6.05 10.33, 12.73 5.83, 19.3 3.76 C25.87 1.69, 37.75 3.57, 41.83 2.88 C45.9 2.19, 44.13 -0.76, 43.75 -0.39" stroke="#1e1e1e" stroke-width="4" fill="none"></path></g><g stroke-linecap="round" transform="translate(246.5 127) rotate(0 34.5 33)"><path d="M44.34 0.86 C50.53 2.25, 55.77 6.38, 59.85 11.85 C63.93 17.31, 68.59 27.15, 68.82 33.64 C69.06 40.13, 65.25 45.98, 61.26 50.79 C57.28 55.6, 50.82 60.46, 44.92 62.49 C39.02 64.52, 32.43 64.24, 25.86 62.98 C19.29 61.73, 9.99 59.58, 5.5 54.97 C1.01 50.37, -1.45 42.33, -1.1 35.33 C-0.74 28.32, 3.44 18.24, 7.64 12.96 C11.85 7.67, 13.97 0.94, 24.15 3.62 C34.34 6.31, 63.8 19.72, 68.74 29.06 C73.68 38.4, 54.25 60.02, 53.78 59.67 M6.95 14.23 C10.85 9.96, 20.74 5.25, 27.33 3.24 C33.93 1.24, 40.27 -0.12, 46.51 2.21 C52.75 4.53, 60.8 12.2, 64.77 17.21 C68.73 22.21, 70.77 26.4, 70.28 32.24 C69.8 38.08, 66.4 46.6, 61.87 52.26 C57.33 57.93, 49.48 64.77, 43.09 66.22 C36.69 67.68, 30.12 63.84, 23.49 60.99 C16.87 58.14, 6.78 53.98, 3.34 49.12 C-0.11 44.26, 2.53 38.13, 2.8 31.83 C3.07 25.52, 4.44 14.87, 4.95 11.28 C5.47 7.69, 4.76 9.76, 5.88 10.28" stroke="#1e1e1e" stroke-width="4" fill="none"></path></g><g stroke-linecap="round" transform="translate(127.5 10) rotate(0 34.5 33)"><path d="M11.58 6.52 C16.33 2.28, 27.13 -1.43, 34.37 -1.58 C41.6 -1.74, 49.46 2.02, 55.01 5.59 C60.56 9.17, 65.65 14.11, 67.66 19.88 C69.67 25.66, 69.01 33.8, 67.08 40.24 C65.16 46.67, 61.06 53.9, 56.12 58.49 C51.17 63.08, 43.89 67.44, 37.42 67.76 C30.95 68.07, 23.14 63.94, 17.3 60.37 C11.46 56.81, 4.91 52.41, 2.4 46.37 C-0.12 40.33, -0.33 30.94, 2.21 24.13 C4.74 17.33, 14.94 9.16, 17.6 5.55 C20.27 1.94, 18.29 2.08, 18.18 2.47 M55.68 4.97 C60.61 7.95, 62.77 12.94, 64.84 19.52 C66.91 26.1, 69.35 37.83, 68.1 44.43 C66.86 51.03, 62.51 55.3, 57.37 59.12 C52.23 62.93, 44.08 66.69, 37.27 67.3 C30.46 67.91, 22.55 66.54, 16.52 62.8 C10.5 59.05, 3.45 51.55, 1.12 44.82 C-1.2 38.09, 0.4 28.48, 2.56 22.44 C4.73 16.4, 8.88 12.6, 14.1 8.58 C19.31 4.57, 26.74 -1.05, 33.84 -1.65 C40.95 -2.25, 53.81 3.64, 56.74 4.98 C59.67 6.32, 52.17 5.35, 51.42 6.42" stroke="#1e1e1e" stroke-width="4" fill="none"></path></g><g stroke-linecap="round"><g transform="translate(61 190) rotate(0 37.20564831499314 38.5945221110652)"><path d="M-2.3 1.86 C10.58 14.14, 62.36 61.91, 75.2 74.71 M1.64 0.4 C14.41 12.84, 61.48 64.74, 73.39 76.99" stroke="#1e1e1e" stroke-width="4" fill="none"></path></g><g transform="translate(61 190) rotate(0 37.20564831499314 38.5945221110652)"><path d="M52.42 66.24 C54.37 68.61, 62.2 72.04, 71.6 78.14 M51.04 66.39 C55.23 69.19, 60.98 71.67, 73.41 77.5" stroke="#1e1e1e" stroke-width="4" fill="none"></path></g><g transform="translate(61 190) rotate(0 37.20564831499314 38.5945221110652)"><path d="M64.91 54.55 C64.1 59.45, 69.12 65.51, 71.6 78.14 M63.53 54.71 C64.86 60.1, 67.76 65.25, 73.41 77.5" stroke="#1e1e1e" stroke-width="4" fill="none"></path></g></g><mask></mask><g stroke-linecap="round"><g transform="translate(188.19201068824623 275.33706567221543) rotate(0 36.903994655876886 -43.168532836107715)"><path d="M-0.25 -1.14 C11.64 -15.38, 60.31 -73.65, 73.01 -88.03 M-3.82 -4.23 C7.46 -17.9, 57.15 -71.87, 70.34 -85.32" stroke="#1e1e1e" stroke-width="4" fill="none"></path></g><g transform="translate(188.19201068824623 275.33706567221543) rotate(0 36.903994655876886 -43.168532836107715)"><path d="M59.6 -62.94 C63.01 -69.11, 67.02 -79.71, 71.03 -86.72 M59.67 -61.59 C63.69 -67.55, 65.01 -73.43, 69.59 -85.87" stroke="#1e1e1e" stroke-width="4" fill="none"></path></g><g transform="translate(188.19201068824623 275.33706567221543) rotate(0 36.903994655876886 -43.168532836107715)"><path d="M47.17 -74.68 C54.95 -76.6, 63.45 -82.96, 71.03 -86.72 M47.24 -73.33 C54.22 -76.44, 58.6 -79.43, 69.59 -85.87" stroke="#1e1e1e" stroke-width="4" fill="none"></path></g></g><mask></mask><g stroke-linecap="round"><g transform="translate(261 134) rotate(0 -33.61923051796339 -33.52755613004163)"><path d="M-1.11 -2.41 C-12.11 -13.43, -55.68 -55.84, -67.17 -66.68 M3.48 2.45 C-7.77 -8.01, -58 -51.68, -69.37 -62.85" stroke="#1e1e1e" stroke-width="4" fill="none"></path></g><g transform="translate(261 134) rotate(0 -33.61923051796339 -33.52755613004163)"><path d="M-47.99 -53.24 C-51.92 -57.83, -58.41 -59.7, -68.33 -60.87 M-45.4 -53.95 C-53.54 -56.97, -61.42 -59.93, -68.73 -62.26" stroke="#1e1e1e" stroke-width="4" fill="none"></path></g><g transform="translate(261 134) rotate(0 -33.61923051796339 -33.52755613004163)"><path d="M-59.54 -40.63 C-60.48 -48.42, -64.01 -53.52, -68.33 -60.87 M-56.95 -41.34 C-61.17 -48.43, -65.23 -55.56, -68.73 -62.26" stroke="#1e1e1e" stroke-width="4" fill="none"></path></g></g><mask></mask><g stroke-linecap="round"><g transform="translate(132.60093271845835 64.24760843687534) rotate(0 -32.800466359229176 31.37619578156233)"><path d="M-0.68 -1.04 C-11.24 9.82, -54.91 52.42, -66 63.16 M4.15 -4.07 C-6.58 7.49, -57.55 55.18, -68.45 67.01" stroke="#1e1e1e" stroke-width="4" fill="none"></path></g><g transform="translate(132.60093271845835 64.24760843687534) rotate(0 -32.800466359229176 31.37619578156233)"><path d="M-58.58 44.09 C-59.89 47.84, -61.89 54.42, -69.07 67.59 M-57.36 44.52 C-62.39 51.93, -64.66 60.75, -67.49 66.7" stroke="#1e1e1e" stroke-width="4" fill="none"></path></g><g transform="translate(132.60093271845835 64.24760843687534) rotate(0 -32.800466359229176 31.37619578156233)"><path d="M-46.51 56.21 C-50.22 57.44, -54.7 61.52, -69.07 67.59 M-45.3 56.64 C-54.36 59.81, -60.79 64.45, -67.49 66.7" stroke="#1e1e1e" stroke-width="4" fill="none"></path></g></g><mask></mask></svg>