<svg version="1.1" xmlns="http://www.w3.org/2000/svg" viewBox="0 0 1083.2627435043914 537.0702398289715" width="1083.2627435043914" height="537.0702398289715">
  <!-- svg-source:excalidraw -->
  
  <defs>
    <style class="style-fonts">
      @font-face {
        font-family: "Virgil";
        src: url("https://excalidraw.com/Virgil.woff2");
      }
      @font-face {
        font-family: "Cascadia";
        src: url("https://excalidraw.com/Cascadia.woff2");
      }
    </style>
    
  </defs>
  <rect x="0" y="0" width="1083.2627435043914" height="537.0702398289715" fill="#ffffff"></rect><g stroke-linecap="round" transform="translate(10 36.150687870696515) rotate(0 221.58236586443542 245.45977597913748)"><path d="M32 0 M32 0 C159.95 -2.18, 289.22 -1.04, 411.16 0 M32 0 C143.84 0.01, 256.53 -0.3, 411.16 0 M411.16 0 C432.47 1.55, 442.11 8.72, 443.16 32 M411.16 0 C432.41 1.6, 443.73 12.77, 443.16 32 M443.16 32 C446.04 179.79, 444.78 327.84, 443.16 458.92 M443.16 32 C443.95 198.77, 443.44 365.2, 443.16 458.92 M443.16 458.92 C445.04 480.68, 432.47 491.47, 411.16 490.92 M443.16 458.92 C441.82 481.09, 434.24 491.04, 411.16 490.92 M411.16 490.92 C323.08 491.6, 236.04 492.17, 32 490.92 M411.16 490.92 C321.75 490.87, 232.08 490.17, 32 490.92 M32 490.92 C12.16 490.74, 0.27 480.04, 0 458.92 M32 490.92 C12.36 489.67, 0.68 481.71, 0 458.92 M0 458.92 C-2.82 343.28, -2.59 228.06, 0 32 M0 458.92 C-0.29 303.1, 0.26 146.7, 0 32 M0 32 C0.57 10.29, 11.79 1.71, 32 0 M0 32 C-1.14 9.09, 9.56 1.63, 32 0" stroke="#1e1e1e" stroke-width="1" fill="none"></path></g><g stroke-linecap="round"><g transform="translate(17.64077123670461 103.96253259645039) rotate(0 213.55845219085165 0.6661285898834421)"><path d="M-0.36 0.6 C70.73 0.65, 356.29 0.04, 427.47 -0.05 M1.66 -0.14 C72.57 0.15, 356.22 1.21, 426.94 1.47" stroke="#1e1e1e" stroke-width="1" fill="none"></path></g></g><mask></mask><g stroke-linecap="round"><g transform="translate(19.809351736349186 302.3881978573032) rotate(0 50.450605972854135 -0.7340189889383737)"><path d="M0.03 0.07 C16.58 0.12, 83.31 0.35, 100.11 0.28 M-1.42 -0.94 C15.44 -1.26, 85.42 -1.98, 102.32 -1.69" stroke="#1e1e1e" stroke-width="1" fill="none"></path></g></g><mask></mask><g stroke-linecap="round"><g transform="translate(128.76694113034193 45.70165191657736) rotate(0 -0.26874670274554546 236.58427190477704)"><path d="M-0.96 0.28 C-1 79.01, -0.37 393.53, -0.21 472.43 M0.74 -0.62 C0.52 78.28, -1.02 395.04, -1.27 473.79" stroke="#1e1e1e" stroke-width="1" fill="none"></path></g></g><mask></mask><g transform="translate(13.506060450468908 55.252615962458094) rotate(0 42.1875 21.600000000000023)"><text x="0" y="0" font-family="Cascadia, Segoe UI Emoji" font-size="36px" fill="#e03131" text-anchor="start" style="white-space: pre;" direction="ltr" dominant-baseline="text-before-edge">  13</text></g><g transform="translate(14.81319718076395 112.02561754326882) rotate(0 42.1875 21.600000000000023)"><text x="0" y="0" font-family="Cascadia, Segoe UI Emoji" font-size="36px" fill="#2f9e44" text-anchor="start" style="white-space: pre;" direction="ltr" dominant-baseline="text-before-edge">  14</text></g><g transform="translate(152.12519724547656 48.6387651958795) rotate(0 139.47143554687506 23.81336260719769)"><text x="0" y="0" font-family="Cascadia, Segoe UI Emoji" font-size="39.68893767866281px" fill="#e03131" text-anchor="start" style="white-space: pre;" direction="ltr" dominant-baseline="text-before-edge">uint8_t byte</text></g><g transform="translate(10.640771236704609 180.37024496349693) rotate(0 42.1875 21.600000000000023)"><text x="0" y="0" font-family="Cascadia, Segoe UI Emoji" font-size="36px" fill="#2f9e44" text-anchor="start" style="white-space: pre;" direction="ltr" dominant-baseline="text-before-edge">  15</text></g><g transform="translate(10.471061282017786 243.82892137642455) rotate(0 42.1875 21.600000000000023)"><text x="0" y="0" font-family="Cascadia, Segoe UI Emoji" font-size="36px" fill="#1971c2" text-anchor="start" style="white-space: pre;" direction="ltr" dominant-baseline="text-before-edge">  16</text></g><g transform="translate(12.24648718798528 310.68566969759047) rotate(0 42.1875 21.600000000000023)"><text x="0" y="0" font-family="Cascadia, Segoe UI Emoji" font-size="36px" fill="#1971c2" text-anchor="start" style="white-space: pre;" direction="ltr" dominant-baseline="text-before-edge">  17</text></g><g transform="translate(28.771184197115872 389.95867127840177) rotate(0 31.640625 21.600000000000023)"><text x="0" y="0" font-family="Cascadia, Segoe UI Emoji" font-size="36px" fill="#1971c2" text-anchor="start" style="white-space: pre;" direction="ltr" dominant-baseline="text-before-edge"> 18</text></g><g stroke-linecap="round"><g transform="translate(17.56031888508585 235.94581832743768) rotate(0 213.1670701643526 -0.7583621943909407)"><path d="M-1.11 -0.19 C70.24 -0.19, 356.13 -1.37, 427.45 -1.18 M0.51 -1.33 C71.82 -1.12, 355.93 -0.33, 426.85 -0.26" stroke="#1e1e1e" stroke-width="1" fill="none"></path></g></g><mask></mask><g stroke-linecap="round"><g transform="translate(19.65702056076009 169.17472000048656) rotate(0 50.532241921124694 0.43425555994156184)"><path d="M-1.02 0.39 C15.93 0.36, 85.19 -0.21, 102.09 -0.15 M0.64 -0.45 C17.5 -0.3, 85.23 1.44, 101.67 1.31" stroke="#1e1e1e" stroke-width="1" fill="none"></path></g></g><mask></mask><g transform="translate(232.09516853255468 351.52781667568934) rotate(0 52.734375 21.600000000000023)"><text x="0" y="0" font-family="Cascadia, Segoe UI Emoji" font-size="36px" fill="#1971c2" text-anchor="start" style="white-space: pre;" direction="ltr" dominant-baseline="text-before-edge">float</text></g><g transform="translate(210.72381886832136 144.07658158915012) rotate(0 73.828125 21.600000000000023)"><text x="0" y="0" font-family="Cascadia, Segoe UI Emoji" font-size="36px" fill="#2f9e44" text-anchor="start" style="white-space: pre;" direction="ltr" dominant-baseline="text-before-edge">padding</text></g><g stroke-linecap="round"><g transform="translate(18.523353550321872 371.1684484654644) rotate(0 49.63896372020025 -0.20402977285829138)"><path d="M-0.07 0.56 C16.87 0.36, 84.18 -1, 100.85 -0.96 M-1.57 -0.2 C15.26 -0.29, 82.48 0.22, 99.79 0.07" stroke="#1e1e1e" stroke-width="1" fill="none"></path></g></g><mask></mask><g stroke-linecap="round"><g transform="translate(18.46970658921157 449.91146083019487) rotate(0 50.848459499932574 0.24850301831907018)"><path d="M1.1 -0.67 C18.11 -1.01, 84.94 -1.31, 101.48 -1.02 M0.22 1.6 C17.16 1.89, 83.65 0.36, 100.74 -0.01" stroke="#1e1e1e" stroke-width="1" fill="none"></path></g></g><mask></mask><g transform="translate(30.819896448195664 464.4561908362722) rotate(0 31.640625 21.600000000000023)"><text x="0" y="0" font-family="Cascadia, Segoe UI Emoji" font-size="36px" fill="#1971c2" text-anchor="start" style="white-space: pre;" direction="ltr" dominant-baseline="text-before-edge"> 19</text></g><g stroke-linecap="round"><g transform="translate(469.89637845483765 77.61911420375657) rotate(0 34.840039496955114 -2.278442851127693)"><path d="M0.84 0.19 C12.41 -0.53, 58.3 -3.95, 69.86 -4.75 M-0.18 -0.75 C11.27 -1.25, 57.67 -2.88, 69.36 -3.3" stroke="#1e1e1e" stroke-width="2" fill="none"></path></g><g transform="translate(469.89637845483765 77.61911420375657) rotate(0 34.840039496955114 -2.278442851127693)"><path d="M41.88 9.41 C50.69 5.91, 60.32 -1.53, 68.05 -2.46 M42.49 7.33 C51.42 2.97, 61.43 -0.03, 69.25 -3.58" stroke="#1e1e1e" stroke-width="2" fill="none"></path></g><g transform="translate(469.89637845483765 77.61911420375657) rotate(0 34.840039496955114 -2.278442851127693)"><path d="M41.15 -11.1 C50.14 -7.7, 60.01 -8.23, 68.05 -2.46 M41.76 -13.18 C51.08 -10.47, 61.34 -6.4, 69.25 -3.58" stroke="#1e1e1e" stroke-width="2" fill="none"></path></g></g><mask></mask><g transform="translate(559.8935114814514 10) rotate(0 229.6875 67.19999999999999)"><text x="0" y="0" font-family="Cascadia, Segoe UI Emoji" font-size="28px" fill="#e03131" text-anchor="start" style="white-space: pre;" direction="ltr" dominant-baseline="text-before-edge">can be stored in any address</text><text x="0" y="33.6" font-family="Cascadia, Segoe UI Emoji" font-size="28px" fill="#e03131" text-anchor="start" style="white-space: pre;" direction="ltr" dominant-baseline="text-before-edge">because sizeof(uint8_t) is 1</text><text x="0" y="67.2" font-family="Cascadia, Segoe UI Emoji" font-size="28px" fill="#e03131" text-anchor="start" style="white-space: pre;" direction="ltr" dominant-baseline="text-before-edge">and any number is divisible</text><text x="0" y="100.80000000000001" font-family="Cascadia, Segoe UI Emoji" font-size="28px" fill="#e03131" text-anchor="start" style="white-space: pre;" direction="ltr" dominant-baseline="text-before-edge">by 1</text></g><g transform="translate(561.8037042906277 186.7743773222046) rotate(0 254.296875 50.400000000000034)"><text x="0" y="0" font-family="Cascadia, Segoe UI Emoji" font-size="28px" fill="#2f9e44" text-anchor="start" style="white-space: pre;" direction="ltr" dominant-baseline="text-before-edge">padding is required in order</text><text x="0" y="33.6" font-family="Cascadia, Segoe UI Emoji" font-size="28px" fill="#2f9e44" text-anchor="start" style="white-space: pre;" direction="ltr" dominant-baseline="text-before-edge">to align the "float" to a valid</text><text x="0" y="67.2" font-family="Cascadia, Segoe UI Emoji" font-size="28px" fill="#2f9e44" text-anchor="start" style="white-space: pre;" direction="ltr" dominant-baseline="text-before-edge">address</text></g><g stroke-linecap="round"><g transform="translate(470.61297692297546 201.52852159141116) rotate(0 35.75014250905167 11.892488914804119)"><path d="M0.29 1.03 C12.41 4.8, 60.43 18.15, 72.52 21.81 M-1.02 0.52 C10.94 4.55, 59.24 19.83, 71.42 23.26" stroke="#1e1e1e" stroke-width="2" fill="none"></path></g><g transform="translate(470.61297692297546 201.52852159141116) rotate(0 35.75014250905167 11.892488914804119)"><path d="M43.18 24.45 C49.63 24.38, 59.97 25.07, 71.31 22.04 M40.82 25.09 C48.85 23.95, 56.05 23.01, 71.24 24.08" stroke="#1e1e1e" stroke-width="2" fill="none"></path></g><g transform="translate(470.61297692297546 201.52852159141116) rotate(0 35.75014250905167 11.892488914804119)"><path d="M49.11 4.81 C53.76 10.28, 62.43 16.48, 71.31 22.04 M46.75 5.45 C53.34 9.06, 59.11 12.84, 71.24 24.08" stroke="#1e1e1e" stroke-width="2" fill="none"></path></g></g><mask></mask><g stroke-linecap="round"><g transform="translate(469.7028739108781 389.4007161730568) rotate(0 37.2970366544057 0.9472298824140921)"><path d="M-0.9 -0.36 C11.6 0.37, 62.62 3.11, 75.49 3.5 M0.83 -1.6 C13.11 -1.13, 61.94 1.02, 74.45 1.76" stroke="#1e1e1e" stroke-width="2" fill="none"></path></g><g transform="translate(469.7028739108781 389.4007161730568) rotate(0 37.2970366544057 0.9472298824140921)"><path d="M45.17 10.29 C56.9 8.87, 64.14 3.39, 73.93 -0.12 M46.21 10.18 C53.16 7.42, 60.62 6.49, 75.05 1.35" stroke="#1e1e1e" stroke-width="2" fill="none"></path></g><g transform="translate(469.7028739108781 389.4007161730568) rotate(0 37.2970366544057 0.9472298824140921)"><path d="M46.2 -10.2 C57.42 -4.62, 64.31 -3.09, 73.93 -0.12 M47.25 -10.32 C53.91 -7.84, 61.1 -3.53, 75.05 1.35" stroke="#1e1e1e" stroke-width="2" fill="none"></path></g></g><mask></mask><g transform="translate(564.6689935043916 347.81432003335783) rotate(0 254.296875 84)"><text x="0" y="0" font-family="Cascadia, Segoe UI Emoji" font-size="28px" fill="#1971c2" text-anchor="start" style="white-space: pre;" direction="ltr" dominant-baseline="text-before-edge">since sizeof(float) is 4, the</text><text x="0" y="33.6" font-family="Cascadia, Segoe UI Emoji" font-size="28px" fill="#1971c2" text-anchor="start" style="white-space: pre;" direction="ltr" dominant-baseline="text-before-edge">compiler will have to make sure</text><text x="0" y="67.2" font-family="Cascadia, Segoe UI Emoji" font-size="28px" fill="#1971c2" text-anchor="start" style="white-space: pre;" direction="ltr" dominant-baseline="text-before-edge">the variable is stored in an</text><text x="0" y="100.80000000000001" font-family="Cascadia, Segoe UI Emoji" font-size="28px" fill="#1971c2" text-anchor="start" style="white-space: pre;" direction="ltr" dominant-baseline="text-before-edge">address that is multiple of 4</text><text x="0" y="134.4" font-family="Cascadia, Segoe UI Emoji" font-size="28px" fill="#1971c2" text-anchor="start" style="white-space: pre;" direction="ltr" dominant-baseline="text-before-edge">(and of course, 16 is one)</text></g></svg>