<svg version="1.1" xmlns="http://www.w3.org/2000/svg" viewBox="0 0 559.158407310249 436.42203240040453" width="559.158407310249" height="436.42203240040453">
  <!-- svg-source:excalidraw -->
  
  <defs>
    <style class="style-fonts">
      @font-face {
        font-family: "Virgil";
        src: url("https://excalidraw.com/Virgil.woff2");
      }
      @font-face {
        font-family: "Cascadia";
        src: url("https://excalidraw.com/Cascadia.woff2");
      }
    </style>
    
  </defs>
  <rect x="0" y="0" width="559.158407310249" height="436.42203240040453" fill="#ffffff"></rect><g stroke-linecap="round" transform="translate(10.484035122569935 10) rotate(0 269.33718609383953 208.21101620020227)"><path d="M32 0 M32 0 C133.91 -0.19, 236.65 -0.09, 506.67 0 M32 0 C197.71 1.2, 364.13 1.78, 506.67 0 M506.67 0 C529.74 -1.99, 539.92 11.14, 538.67 32 M506.67 0 C527.84 1.73, 540.29 11.39, 538.67 32 M538.67 32 C536.66 109.91, 536.24 187.62, 538.67 384.42 M538.67 32 C537.63 170.58, 537.77 309.04, 538.67 384.42 M538.67 384.42 C539.29 403.92, 528.66 417.6, 506.67 416.42 M538.67 384.42 C539.29 407.01, 527.73 417.52, 506.67 416.42 M506.67 416.42 C398.18 417.88, 287.66 416.9, 32 416.42 M506.67 416.42 C389.96 416.91, 273.77 417.12, 32 416.42 M32 416.42 C9.02 416.35, 1.32 405.41, 0 384.42 M32 416.42 C11.85 414.35, 0.74 404.7, 0 384.42 M0 384.42 C2.48 308.77, 1.3 232, 0 32 M0 384.42 C-0.43 261.01, -0.08 137.67, 0 32 M0 32 C-1.41 12.16, 12.36 -0.79, 32 0 M0 32 C1.43 12.46, 8.53 -0.58, 32 0" stroke="#1e1e1e" stroke-width="1" fill="none"></path></g><g stroke-linecap="round"><g transform="translate(17.169709954686596 74.9465555119898) rotate(0 261.323013785631 -0.443122557923175)"><path d="M-0.3 0.28 C86.7 0.27, 435.58 -1.02, 522.95 -1.17 M1.74 -0.62 C88.46 -0.42, 434.83 -0.41, 521.77 -0.24" stroke="#1e1e1e" stroke-width="1" fill="none"></path></g></g><mask></mask><g stroke-linecap="round"><g transform="translate(18.498207430778507 138.42604077272654) rotate(0 261.49839624479466 -0.2844354202266004)"><path d="M-0.94 0.85 C86.24 1.05, 436.69 0.41, 523.94 0.43 M0.76 0.25 C87.76 0.15, 435.9 -1.28, 523.28 -1.46" stroke="#1e1e1e" stroke-width="1" fill="none"></path></g></g><mask></mask><g stroke-linecap="round"><g transform="translate(19.338290454331172 273.37222077284264) rotate(0 50.370938415078115 -0.6081622018665485)"><path d="M-1.14 -0.39 C15.99 -0.4, 84.74 -0.71, 101.88 -0.73 M0.46 -1.64 C17.58 -1.45, 84.56 0.06, 101.36 0.42" stroke="#1e1e1e" stroke-width="1" fill="none"></path></g></g><mask></mask><g stroke-linecap="round"><g transform="translate(128.29587984832392 16.685674832116774) rotate(0 0.38357985131438 199.93569955983526)"><path d="M-0.3 0.47 C-0.35 67.17, -0.18 332.63, -0.02 399.18 M1.75 -0.32 C1.51 66.58, -0.73 333.32, -0.98 400.19" stroke="#1e1e1e" stroke-width="1" fill="none"></path></g></g><mask></mask><g transform="translate(13.034999168450781 27.19173528258557) rotate(0 42.1875 21.600000000000023)"><text x="0" y="0" font-family="Cascadia, Segoe UI Emoji" font-size="36px" fill="#1e1e1e" text-anchor="start" style="white-space: pre;" direction="ltr" dominant-baseline="text-before-edge">  08</text></g><g transform="translate(14.34213589874605 85.87492967257276) rotate(0 42.1875 21.600000000000023)"><text x="0" y="0" font-family="Cascadia, Segoe UI Emoji" font-size="36px" fill="#1e1e1e" text-anchor="start" style="white-space: pre;" direction="ltr" dominant-baseline="text-before-edge">  16</text></g><g transform="translate(146.1405200012515 23.087918698771773) rotate(0 76.2451171875 19.526837243338832)"><text x="0" y="0" font-family="Cascadia, Segoe UI Emoji" font-size="32.544728738898144px" fill="#1e1e1e" text-anchor="start" style="white-space: pre;" direction="ltr" dominant-baseline="text-before-edge">Capacity</text></g><g transform="translate(149.06438208384475 87.92950039250309) rotate(0 30.14373779296875 20.587612108866892)"><text x="0" y="0" font-family="Cascadia, Segoe UI Emoji" font-size="34.31268684811147px" fill="#1e1e1e" text-anchor="start" style="white-space: pre;" direction="ltr" dominant-baseline="text-before-edge">len</text></g><g transform="translate(146.47452158181113 148.60570632622193) rotate(0 46.490478515625 23.813362607197632)"><text x="0" y="0" font-family="Cascadia, Segoe UI Emoji" font-size="39.68893767866281px" fill="#1e1e1e" text-anchor="start" style="white-space: pre;" direction="ltr" dominant-baseline="text-before-edge">data</text></g><g transform="translate(10.169709954686482 153.26446068821247) rotate(0 42.1875 21.600000000000023)"><text x="0" y="0" font-family="Cascadia, Segoe UI Emoji" font-size="36px" fill="#1e1e1e" text-anchor="start" style="white-space: pre;" direction="ltr" dominant-baseline="text-before-edge">  24</text></g><g transform="translate(10 216.72313710113986) rotate(0 42.1875 21.600000000000023)"><text x="0" y="0" font-family="Cascadia, Segoe UI Emoji" font-size="36px" fill="#1e1e1e" text-anchor="start" style="white-space: pre;" direction="ltr" dominant-baseline="text-before-edge">  25</text></g><g transform="translate(11.775425905967495 283.579885422306) rotate(0 42.1875 21.600000000000023)"><text x="0" y="0" font-family="Cascadia, Segoe UI Emoji" font-size="36px" fill="#1e1e1e" text-anchor="start" style="white-space: pre;" direction="ltr" dominant-baseline="text-before-edge">  26</text></g><g stroke-linecap="round"><g transform="translate(17.418880982776727 339.1613253801677) rotate(0 50.28069959685922 -0.5625272896186289)"><path d="M0.49 -0.39 C17.28 -0.37, 84.47 0.41, 101.28 0.62 M-0.72 -1.64 C15.89 -2.02, 83.54 -1.28, 100.44 -1.18" stroke="#1e1e1e" stroke-width="1" fill="none"></path></g></g><mask></mask><g stroke-linecap="round"><g transform="translate(20.705470911328234 205.73856266960433) rotate(0 50.29993672996545 0.6039640163629656)"><path d="M1.02 -0.56 C17.77 -0.46, 83.86 1.06, 100.5 1.19 M0.1 1.76 C16.64 1.51, 82.61 -0.29, 99.26 -0.31" stroke="#1e1e1e" stroke-width="1" fill="none"></path></g></g><mask></mask><g transform="translate(64.92453018409071 359.56528407923884) rotate(0 0.00004999999998744897 0.00004999999998744897)" stroke="none"><path fill="#1e1e1e" d="M 3.14,-3.14 Q 3.14,-3.14 3.55,-2.55 3.97,-1.97 4.18,-1.28 4.40,-0.59 4.38,0.11 4.36,0.83 4.11,1.51 3.86,2.18 3.41,2.74 2.96,3.30 2.36,3.69 1.75,4.08 1.05,4.25 0.36,4.42 -0.35,4.36 -1.07,4.31 -1.73,4.02 -2.39,3.74 -2.92,3.26 -3.46,2.78 -3.81,2.15 -4.16,1.53 -4.30,0.82 -4.43,0.11 -4.34,-0.59 -4.24,-1.30 -3.92,-1.94 -3.60,-2.59 -3.09,-3.09 -2.59,-3.60 -1.94,-3.92 -1.30,-4.24 -0.59,-4.34 0.12,-4.43 0.82,-4.30 1.53,-4.16 2.15,-3.81 2.78,-3.46 3.26,-2.92 3.74,-2.39 4.02,-1.73 4.31,-1.07 4.36,-0.35 4.42,0.36 4.25,1.05 4.07,1.75 3.69,2.36 3.30,2.96 2.74,3.41 2.18,3.86 1.51,4.11 0.83,4.36 0.11,4.38 -0.60,4.40 -1.28,4.18 -1.97,3.97 -2.55,3.55 -3.14,3.13 -3.14,3.14 -3.14,3.14 -3.47,2.71 -3.80,2.29 -4.02,1.80 -4.24,1.32 -4.33,0.79 -4.43,0.26 -4.40,-0.26 -4.36,-0.80 -4.20,-1.31 -4.04,-1.82 -3.77,-2.28 -3.49,-2.73 -3.11,-3.11 -2.73,-3.49 -2.28,-3.77 -1.82,-4.05 -1.31,-4.20 -0.80,-4.36 -0.26,-4.40 0.26,-4.43 0.79,-4.33 1.32,-4.24 1.80,-4.02 2.29,-3.80 2.71,-3.47 3.14,-3.14 3.14,-3.14 L 3.14,-3.14 Z"></path></g><g transform="translate(63.96943377950265 372.93663374347193) rotate(0 0.00004999999998744897 0.00004999999998744897)" stroke="none"><path fill="#1e1e1e" d="M 3.14,-3.14 Q 3.14,-3.14 3.55,-2.55 3.97,-1.97 4.18,-1.28 4.40,-0.59 4.38,0.11 4.36,0.83 4.11,1.51 3.86,2.18 3.41,2.74 2.96,3.30 2.36,3.69 1.75,4.08 1.05,4.25 0.36,4.42 -0.35,4.36 -1.07,4.31 -1.73,4.02 -2.39,3.74 -2.92,3.26 -3.46,2.78 -3.81,2.15 -4.16,1.53 -4.30,0.82 -4.43,0.11 -4.34,-0.59 -4.24,-1.30 -3.92,-1.94 -3.60,-2.59 -3.09,-3.09 -2.59,-3.60 -1.94,-3.92 -1.30,-4.24 -0.59,-4.34 0.12,-4.43 0.82,-4.30 1.53,-4.16 2.15,-3.81 2.78,-3.46 3.26,-2.92 3.74,-2.39 4.02,-1.73 4.31,-1.07 4.36,-0.35 4.42,0.36 4.25,1.05 4.07,1.75 3.69,2.36 3.30,2.96 2.74,3.41 2.18,3.86 1.51,4.11 0.83,4.36 0.11,4.38 -0.60,4.40 -1.28,4.18 -1.97,3.97 -2.55,3.55 -3.14,3.13 -3.14,3.14 -3.14,3.14 -3.47,2.71 -3.80,2.29 -4.02,1.80 -4.24,1.32 -4.33,0.79 -4.43,0.26 -4.40,-0.26 -4.36,-0.80 -4.20,-1.31 -4.04,-1.82 -3.77,-2.28 -3.49,-2.73 -3.11,-3.11 -2.73,-3.49 -2.28,-3.77 -1.82,-4.05 -1.31,-4.20 -0.80,-4.36 -0.26,-4.40 0.26,-4.43 0.79,-4.33 1.32,-4.24 1.80,-4.02 2.29,-3.80 2.71,-3.47 3.14,-3.14 3.14,-3.14 L 3.14,-3.14 Z"></path></g><g transform="translate(63.96943377950265 387.263079812293) rotate(0 0.00004999999998744897 0.00004999999998744897)" stroke="none"><path fill="#1e1e1e" d="M 3.14,-3.14 Q 3.14,-3.14 3.55,-2.55 3.97,-1.97 4.18,-1.28 4.40,-0.59 4.38,0.11 4.36,0.83 4.11,1.51 3.86,2.18 3.41,2.74 2.96,3.30 2.36,3.69 1.75,4.08 1.05,4.25 0.36,4.42 -0.35,4.36 -1.07,4.31 -1.73,4.02 -2.39,3.74 -2.92,3.26 -3.46,2.78 -3.81,2.15 -4.16,1.53 -4.30,0.82 -4.43,0.11 -4.34,-0.59 -4.24,-1.30 -3.92,-1.94 -3.60,-2.59 -3.09,-3.09 -2.59,-3.60 -1.94,-3.92 -1.30,-4.24 -0.59,-4.34 0.12,-4.43 0.82,-4.30 1.53,-4.16 2.15,-3.81 2.78,-3.46 3.26,-2.92 3.74,-2.39 4.02,-1.73 4.31,-1.07 4.36,-0.35 4.42,0.36 4.25,1.05 4.07,1.75 3.69,2.36 3.30,2.96 2.74,3.41 2.18,3.86 1.51,4.11 0.83,4.36 0.11,4.38 -0.60,4.40 -1.28,4.18 -1.97,3.97 -2.55,3.55 -3.14,3.13 -3.14,3.14 -3.14,3.14 -3.47,2.71 -3.80,2.29 -4.02,1.80 -4.24,1.32 -4.33,0.79 -4.43,0.26 -4.40,-0.26 -4.36,-0.80 -4.20,-1.31 -4.04,-1.82 -3.77,-2.28 -3.49,-2.73 -3.11,-3.11 -2.73,-3.49 -2.28,-3.77 -1.82,-4.05 -1.31,-4.20 -0.80,-4.36 -0.26,-4.40 0.26,-4.43 0.79,-4.33 1.32,-4.24 1.80,-4.02 2.29,-3.80 2.71,-3.47 3.14,-3.14 3.14,-3.14 L 3.14,-3.14 Z"></path></g></svg>