<svg version="1.1" xmlns="http://www.w3.org/2000/svg" viewBox="0 0 878.270958519385 257.5870713069628" width="878.270958519385" height="257.5870713069628">
  <!-- svg-source:excalidraw -->
  
  <defs>
    <style class="style-fonts">
      @font-face {
        font-family: "Virgil";
        src: url("https://excalidraw.com/Virgil.woff2");
      }
      @font-face {
        font-family: "Cascadia";
        src: url("https://excalidraw.com/Cascadia.woff2");
      }
    </style>
    
  </defs>
  <rect x="0" y="0" width="878.270958519385" height="257.5870713069628" fill="#ffffff"></rect><g stroke-linecap="round" transform="translate(10 10) rotate(0 429.1354792596925 45.5)"><path d="M22.75 0 M22.75 0 C315.15 1.77, 609.53 2.37, 835.52 0 M22.75 0 C322.11 -2.16, 621.66 -1.62, 835.52 0 M835.52 0 C852.06 -0.78, 857.69 8.95, 858.27 22.75 M835.52 0 C852.6 0.04, 860.24 9.8, 858.27 22.75 M858.27 22.75 C859.7 32.5, 857.99 45.13, 858.27 68.25 M858.27 22.75 C858.65 39.53, 857.6 57.42, 858.27 68.25 M858.27 68.25 C858.81 82.96, 849.18 89.49, 835.52 91 M858.27 68.25 C859.11 82.65, 849.95 91.76, 835.52 91 M835.52 91 C553.26 89.64, 270.66 90.23, 22.75 91 M835.52 91 C573.71 92.52, 311.67 92.08, 22.75 91 M22.75 91 C8.4 91.98, 1.99 83.1, 0 68.25 M22.75 91 C9.28 91.6, 0.89 81.17, 0 68.25 M0 68.25 C0.74 58.34, 1.53 47.86, 0 22.75 M0 68.25 C0.31 50.55, 0.57 33.67, 0 22.75 M0 22.75 C0.53 7.93, 8.4 -1.22, 22.75 0 M0 22.75 C1.9 8.95, 6.3 0.09, 22.75 0" stroke="#1e1e1e" stroke-width="1" fill="none"></path></g><g transform="translate(32.14751450525864 36.26172930110738) rotate(0 68.7385482788086 20.34045546181133)"><text x="0" y="0" font-family="Virgil, Segoe UI Emoji" font-size="32.544728738898144px" fill="#1e1e1e" text-anchor="start" style="white-space: pre;" direction="ltr" dominant-baseline="text-before-edge">Capacity</text></g><g transform="translate(233.9728157447821 37.671759859837834) rotate(0 21.89862823486328 21.445429280069675)"><text x="0" y="0" font-family="Virgil, Segoe UI Emoji" font-size="34.31268684811147px" fill="#1e1e1e" text-anchor="start" style="white-space: pre;" direction="ltr" dominant-baseline="text-before-edge">len</text></g><g transform="translate(349.7712922932093 34.02206594598425) rotate(0 68.61254119873053 24.805586049164248)"><text x="0" y="0" font-family="Virgil, Segoe UI Emoji" font-size="39.68893767866281px" fill="#1e1e1e" text-anchor="start" style="white-space: pre;" direction="ltr" dominant-baseline="text-before-edge">data[]</text></g><g stroke-linecap="round"><g transform="translate(200.58429148532923 22.975956497957384) rotate(0 0.2601565712025149 31.646872853544153)"><path d="M0.75 0.67 C1.04 11.21, 0.56 53.13, 0.59 63.31 M-0.32 -0.02 C-0.03 10.19, -0.21 51.23, -0.04 61.7" stroke="#1e1e1e" stroke-width="2" fill="none"></path></g></g><mask></mask><g stroke-linecap="round"><g transform="translate(316.7621408698436 21.407723038328356) rotate(0 0.0016961675137281418 33.30244060348383)"><path d="M-0.88 1.07 C-0.73 11.68, 0.74 54.09, 0.88 64.75 M0.86 0.59 C0.93 11.87, 0.68 55.08, 0.39 66.02" stroke="#1e1e1e" stroke-width="2" fill="none"></path></g></g><mask></mask><g transform="translate(521.3825983906297 31.178771568708555) rotate(0 154.68487548828125 26.526135903257)"><text x="0" y="0" font-family="Virgil, Segoe UI Emoji" font-size="42.441817445211186px" fill="#1e1e1e" text-anchor="start" style="white-space: pre;" direction="ltr" dominant-baseline="text-before-edge">&lt;actual data&gt;</text></g><g stroke-linecap="round" transform="translate(12.040715385081853 162.55777869777722) rotate(0 97.94513452450508 42.51464630459279)"><path d="M21.26 0 M21.26 0 C69.88 1.55, 117.15 1.51, 174.63 0 M21.26 0 C71.72 -1.02, 120.93 -0.73, 174.63 0 M174.63 0 C189.51 1.67, 196.37 5.48, 195.89 21.26 M174.63 0 C190.66 -0.12, 197.82 5.87, 195.89 21.26 M195.89 21.26 C196.85 35.89, 194.5 46.78, 195.89 63.77 M195.89 21.26 C195.74 29.76, 196.55 38.9, 195.89 63.77 M195.89 63.77 C195.59 77.12, 189.16 86.58, 174.63 85.03 M195.89 63.77 C197.94 77.96, 189.22 83.56, 174.63 85.03 M174.63 85.03 C121.75 87.12, 69.03 85.63, 21.26 85.03 M174.63 85.03 C122.85 83.76, 69.63 84.16, 21.26 85.03 M21.26 85.03 C8.3 83.7, -0.38 79.54, 0 63.77 M21.26 85.03 C6.41 84.43, 2.09 76.5, 0 63.77 M0 63.77 C0.84 48.42, 0.26 36.99, 0 21.26 M0 63.77 C0.6 49.87, 0.73 34.34, 0 21.26 M0 21.26 C0.44 6.24, 9.06 -0.03, 21.26 0 M0 21.26 C-0.74 7.61, 5.66 -2.01, 21.26 0" stroke="#1e1e1e" stroke-width="1" fill="none"></path></g><g transform="translate(47.75982909659865 182.57242500236998) rotate(0 62.22602081298828 22.5)"><text x="62.22602081298828" y="0" font-family="Virgil, Segoe UI Emoji" font-size="36px" fill="#1e1e1e" text-anchor="middle" style="white-space: pre;" direction="ltr" dominant-baseline="text-before-edge">int *va</text></g><g stroke-linecap="round"><g transform="translate(209.00730459370197 204.27724038730656) rotate(0 65.51080243538502 -50.98121347032901)"><path d="M0.43 -0.43 C22.58 -17.16, 109.88 -84.82, 131.83 -101.53 M-0.81 -1.7 C21.25 -18.19, 108.67 -84.05, 130.69 -100.32" stroke="#1e1e1e" stroke-width="1" fill="none"></path></g><g transform="translate(209.00730459370197 204.27724038730656) rotate(0 65.51080243538502 -50.98121347032901)"><path d="M113.54 -75.82 C116.88 -80.59, 121.62 -85.99, 130.27 -101.72 M114.28 -74.8 C118.08 -80.7, 123.24 -88.62, 130.7 -100.22" stroke="#1e1e1e" stroke-width="1" fill="none"></path></g><g transform="translate(209.00730459370197 204.27724038730656) rotate(0 65.51080243538502 -50.98121347032901)"><path d="M101.26 -92.26 C107 -93.65, 114.3 -95.62, 130.27 -101.72 M102 -91.24 C108.75 -93.12, 116.96 -96.96, 130.7 -100.22" stroke="#1e1e1e" stroke-width="1" fill="none"></path></g></g><mask></mask></svg>