<?xml version="1.0" encoding="utf-8"?>
<svg viewBox="1.978 1.932 20.114 20.161" fill="none" xmlns="http://www.w3.org/2000/svg">
  <rect x="4.875" y="7.89" width="15.286" height="9.021" style="stroke: rgb(0, 0, 0); paint-order: fill; fill: rgb(255, 255, 255);" transform="matrix(0.9999999999999999, 0, 0, 0.9999999999999999, -2.220446049250313e-16, -2.220446049250313e-16)"/>
  <path clip-rule="evenodd" d="m3.46447 3.46447c-1.46447 1.46446-1.46447 3.82148-1.46447 8.53553 0 4.714 0 7.0711 1.46447 8.5355 1.46446 1.4645 3.82148 1.4645 8.53553 1.4645 4.714 0 7.0711 0 8.5355-1.4645 1.4645-1.4644 1.4645-3.8215 1.4645-8.5355 0-4.71405 0-7.07107-1.4645-8.53553-1.4644-1.46447-3.8215-1.46447-8.5355-1.46447-4.71405 0-7.07107 0-8.53553 1.46447zm2.95938 6.05541c.26518-.31821.7381-.3612 1.05631-.09603l.27642.23035c.60495.5041 1.11995.9332 1.47637 1.3279.37856.4192.67399.9013.67399 1.5179s-.29543 1.0987-.67399 1.5179c-.35642.3947-.87142.8239-1.47637 1.3279l-.27642.2304c-.31821.2652-.79113.2222-1.05631-.096-.26517-.3183-.22218-.7912.09603-1.0563l.2344-.1954c.65857-.5488 1.0892-.91 1.3654-1.2159.26228-.2904.28726-.4266.28726-.5126s-.02498-.2221-.28726-.5126c-.2762-.3059-.70683-.6671-1.36539-1.2159l-.23441-.1953c-.31821-.2652-.3612-.73811-.09603-1.05632zm11.32615 5.48012c0 .4142-.3358.75-.75.75h-5c-.4142 0-.75-.3358-.75-.75s.3358-.75.75-.75h5c.4142 0 .75.3358.75.75z" fill="#1c274c" fill-rule="evenodd" transform="matrix(0.9999999999999999, 0, 0, 0.9999999999999999, -2.220446049250313e-16, -2.220446049250313e-16)"/>
</svg>